<svg width="27" height="25" viewBox="0 0 27 25" fill="none" xmlns="http://www.w3.org/2000/svg">
<path d="M12.406 24.975C10.0871 24.9746 7.81709 24.3078 5.86629 23.0541C3.9155 21.8003 2.36605 20.0125 1.4024 17.9033C0.438748 15.794 0.101507 13.4523 0.430778 11.1569C0.760049 8.86146 1.74199 6.709 3.2597 4.95572C4.77741 3.20244 6.76694 1.92219 8.99151 1.26739C11.2161 0.612601 13.5819 0.610828 15.8075 1.2623C18.033 1.91377 20.0245 3.19103 21.5448 4.94205C23.0651 6.69306 24.0503 8.84407 24.383 11.139H25.872C26.0875 11.1392 26.2982 11.2032 26.4773 11.323C26.6565 11.4427 26.7963 11.6129 26.8788 11.8119C26.9614 12.011 26.9832 12.2301 26.9414 12.4416C26.8996 12.653 26.7961 12.8473 26.644 13L23.532 16.112C23.4307 16.2134 23.3105 16.2939 23.1781 16.3488C23.0457 16.4038 22.9038 16.432 22.7605 16.432C22.6172 16.432 22.4753 16.4038 22.3429 16.3488C22.2105 16.2939 22.0902 16.2134 21.989 16.112L18.876 13C18.7229 12.8475 18.6185 12.653 18.5761 12.4412C18.5337 12.2293 18.5552 12.0096 18.6377 11.81C18.7203 11.6103 18.8603 11.4397 19.04 11.3197C19.2196 11.1997 19.4309 11.1358 19.647 11.136H20.824C20.4248 9.21719 19.3815 7.49259 17.8673 6.24832C16.3531 5.00405 14.4589 4.31494 12.4991 4.29532C10.5393 4.2757 8.63173 4.92674 7.09289 6.14044C5.55404 7.35414 4.47644 9.05754 4.0389 10.968C3.60136 12.8784 3.83019 14.881 4.6874 16.6434C5.54461 18.4059 6.9787 19.8223 8.75167 20.6576C10.5246 21.4928 12.5299 21.6968 14.4347 21.2356C16.3396 20.7744 18.0295 19.6758 19.224 18.122C19.3645 17.9401 19.5395 17.7877 19.7389 17.6734C19.9383 17.5592 20.1583 17.4853 20.3862 17.4561C20.6142 17.4268 20.8457 17.4427 21.0675 17.503C21.2893 17.5632 21.4971 17.6665 21.679 17.807C21.8609 17.9475 22.0133 18.1225 22.1276 18.3219C22.2418 18.5213 22.3157 18.7413 22.345 18.9693C22.3742 19.1972 22.3582 19.4287 22.298 19.6505C22.2378 19.8723 22.1345 20.0801 21.994 20.262C20.867 21.7332 19.4152 22.924 17.752 23.7416C16.0888 24.5591 14.2592 24.9812 12.406 24.975Z" fill="#63AFE6"/>
</svg>
