<svg width="5" height="20" viewBox="0 0 5 20" fill="none" xmlns="http://www.w3.org/2000/svg">
<path d="M2.534 19.428C1.89297 19.428 1.27817 19.1734 0.82489 18.7201C0.371615 18.2668 0.117004 17.652 0.117004 17.011V3.12399C0.11727 2.48314 0.37201 1.86863 0.825256 1.41557C1.2785 0.962514 1.89314 0.707992 2.534 0.707993C2.85127 0.707993 3.16543 0.770491 3.45856 0.891907C3.75168 1.01332 4.01802 1.19129 4.24237 1.41563C4.46672 1.63998 4.6447 1.90631 4.76611 2.19943C4.88753 2.49255 4.95001 2.80672 4.95001 3.12399V17.011C4.95001 17.6519 4.69549 18.2665 4.24243 18.7197C3.78937 19.173 3.17485 19.4277 2.534 19.428Z" fill="white"/>
</svg>
