<svg width="88" height="174" viewBox="0 0 88 174" fill="none" xmlns="http://www.w3.org/2000/svg">
<path d="M87.558 86.77C87.5614 89.746 87.4079 92.7201 87.098 95.68C84.8982 116.998 74.8725 136.744 58.9593 151.099C43.046 165.455 22.3755 173.4 0.944 173.4V155.42C17.4113 155.421 33.2933 149.312 45.5154 138.276C57.7374 127.24 65.43 112.062 67.104 95.68C67.3335 93.434 67.447 91.1777 67.444 88.92C67.4453 80.1863 65.7262 71.5378 62.3849 63.4685C59.0435 55.3992 54.1454 48.0671 47.9701 41.8909C41.7949 35.7148 34.4636 30.8155 26.3948 27.473C18.326 24.1304 9.67775 22.41 0.944 22.41V0.149994C12.3187 0.150257 23.5821 2.39097 34.0908 6.7442C44.5996 11.0974 54.148 17.4779 62.1909 25.5214C70.2338 33.5648 76.6136 43.1137 80.9661 53.6227C85.3186 64.1318 87.5585 75.3952 87.558 86.77Z" fill="#84A9AC"/>
</svg>
