<svg width="15" height="15" viewBox="0 0 15 15" fill="none" xmlns="http://www.w3.org/2000/svg">
<path d="M14.582 2.57502V12.875C14.5835 13.0692 14.5496 13.262 14.482 13.444C14.4276 13.5986 14.3482 13.7431 14.247 13.872C14.2089 13.9208 14.1681 13.9675 14.125 14.012C13.9983 14.1469 13.8486 14.2583 13.683 14.341C13.6536 14.3571 13.6232 14.3715 13.592 14.384C13.565 14.395 13.535 14.409 13.508 14.417H13.503C13.451 14.436 13.403 14.452 13.346 14.469L13.306 14.477L13.228 14.493C13.1825 14.5021 13.1364 14.5085 13.09 14.512C13.039 14.517 12.985 14.52 12.934 14.52H2.63602C2.41912 14.5203 2.20432 14.4778 2.00385 14.395C1.80337 14.3122 1.62116 14.1907 1.46765 14.0375C1.31414 13.8843 1.19235 13.7023 1.10919 13.502C1.02604 13.3016 0.983163 13.0869 0.983032 12.87V2.57002C0.983032 2.51902 0.983028 2.46501 0.991028 2.41401C0.991028 2.40001 0.991028 2.387 0.991028 2.373C0.996028 2.33 1.00401 2.28702 1.01001 2.24702C1.02455 2.17926 1.04325 2.11246 1.06601 2.04701C1.07779 2.00646 1.09219 1.96673 1.10904 1.92802C1.12504 1.89102 1.14201 1.85602 1.16101 1.82102C1.18408 1.77439 1.21014 1.72929 1.23901 1.68601C1.27422 1.62755 1.31367 1.57174 1.35703 1.51902C1.39803 1.47302 1.43804 1.42701 1.48404 1.38401C1.52748 1.34147 1.57357 1.30174 1.62204 1.26502C1.75459 1.16266 1.90192 1.08106 2.05902 1.02302C2.24199 0.955077 2.43584 0.92118 2.63101 0.923014H12.925C13.1423 0.922488 13.3576 0.964814 13.5586 1.04759C13.7595 1.13036 13.9422 1.25196 14.0961 1.40541C14.25 1.55885 14.3722 1.74112 14.4555 1.94181C14.5389 2.14251 14.5819 2.35769 14.582 2.57502Z" fill="white"/>
</svg>
