<svg width="14" height="15" viewBox="0 0 14 15" fill="none" xmlns="http://www.w3.org/2000/svg">
<path d="M13.617 2.54099V12.841C13.6185 13.0352 13.5846 13.228 13.517 13.41C13.4626 13.5649 13.3832 13.7098 13.282 13.839C13.244 13.887 13.204 13.933 13.161 13.979C13.0336 14.1131 12.8841 14.2244 12.719 14.308C12.689 14.324 12.659 14.337 12.627 14.351C12.595 14.365 12.57 14.375 12.543 14.383C12.492 14.402 12.4431 14.418 12.3871 14.434L12.346 14.442L12.268 14.458C12.2229 14.4676 12.1771 14.4739 12.131 14.477C12.0789 14.4826 12.0265 14.4853 11.974 14.485H1.67001C1.45308 14.4854 1.23822 14.443 1.03769 14.3603C0.837156 14.2775 0.654908 14.156 0.501373 14.0028C0.347839 13.8495 0.226022 13.6675 0.142914 13.4671C0.0598062 13.2667 0.0170286 13.0519 0.017029 12.835V2.535C0.0170027 2.48254 0.0200104 2.43011 0.0260317 2.37799C0.0260317 2.36499 0.0260317 2.35101 0.0260317 2.33801C0.0320317 2.29501 0.0400136 2.251 0.0450136 2.211C0.0595496 2.14314 0.0785986 2.07631 0.10202 2.01099C0.113346 1.97062 0.12772 1.93119 0.14502 1.89301C0.160197 1.85617 0.177213 1.82013 0.196015 1.785C0.21947 1.73858 0.245514 1.6935 0.274018 1.64999C0.309794 1.59166 0.349574 1.53586 0.393036 1.483C0.432992 1.43582 0.475367 1.39075 0.52002 1.34799C0.563096 1.30575 0.608852 1.26635 0.657013 1.23001C0.789524 1.12733 0.936886 1.04539 1.09402 0.987C1.27681 0.91967 1.47025 0.885791 1.66504 0.886994H11.964C12.1812 0.886994 12.3962 0.929776 12.5968 1.01291C12.7974 1.09604 12.9797 1.21792 13.1332 1.37152C13.2867 1.52512 13.4085 1.70745 13.4915 1.90811C13.5745 2.10878 13.6172 2.32383 13.617 2.54099Z" fill="#63AFE6"/>
</svg>
