<svg width="223" height="64" viewBox="0 0 223 64" fill="none" xmlns="http://www.w3.org/2000/svg">
<path d="M190.457 0.977997H31.857C27.7754 0.977997 23.7338 1.78194 19.963 3.34392C16.1921 4.9059 12.7658 7.19533 9.87976 10.0815C6.9937 12.9676 4.70439 16.394 3.14253 20.1649C1.58067 23.9358 0.776861 27.9774 0.776993 32.059C0.776993 40.3019 4.0515 48.2072 9.88013 54.0359C15.7088 59.8645 23.6141 63.139 31.857 63.139H190.457C198.7 63.139 206.605 59.8645 212.434 54.0359C218.263 48.2073 221.538 40.302 221.538 32.059C221.538 27.9774 220.734 23.9357 219.172 20.1648C217.61 16.3939 215.321 12.9676 212.435 10.0814C209.548 7.19528 206.122 4.90587 202.351 3.3439C198.58 1.78194 194.539 0.977997 190.457 0.977997Z" fill="#3B6978" stroke="#111111" stroke-miterlimit="10"/>
</svg>
