<svg width="223" height="64" viewBox="0 0 223 64" fill="none" xmlns="http://www.w3.org/2000/svg">
<path d="M190.844 0.674988H32.244C24.0008 0.674988 16.0952 3.94959 10.2664 9.77841C4.43758 15.6072 1.16299 23.5128 1.16299 31.756C1.16326 39.9991 4.43795 47.9045 10.2667 53.7333C16.0955 59.5621 24.0009 62.8367 32.244 62.837H190.844C199.087 62.8367 206.992 59.562 212.821 53.7332C218.65 47.9045 221.924 39.999 221.924 31.756C221.924 27.6744 221.12 23.6328 219.558 19.8619C217.997 16.091 215.707 12.6646 212.821 9.77847C209.935 6.89232 206.509 4.6029 202.738 3.04092C198.967 1.47895 194.926 0.674988 190.844 0.674988Z" fill="#3B6978" stroke="#111111" stroke-miterlimit="10"/>
</svg>
