<svg width="223" height="64" viewBox="0 0 223 64" fill="none" xmlns="http://www.w3.org/2000/svg">
<path d="M190.492 0.523987H31.892C23.6491 0.523987 15.7437 3.79851 9.91512 9.62714C4.08648 15.4558 0.811996 23.3611 0.811996 31.604C0.811865 35.6856 1.61568 39.7272 3.17754 43.4981C4.73939 47.269 7.02871 50.6954 9.91476 53.5815C12.8008 56.4677 16.2271 58.7571 19.998 60.3191C23.7688 61.8811 27.8104 62.685 31.892 62.685H190.492C194.574 62.685 198.616 61.8809 202.387 60.3187C206.158 58.7565 209.585 56.4667 212.471 53.5802C215.357 50.6936 217.647 47.2668 219.208 43.4954C220.77 39.724 221.574 35.682 221.573 31.6C221.572 23.3577 218.296 15.4534 212.468 9.62564C206.639 3.7979 198.734 0.523987 190.492 0.523987Z" fill="#84A9AC" stroke="#111111" stroke-miterlimit="10"/>
</svg>
